# xmcd
#
# Track frame offsets:
#	150
#	15676
#	31606
#	47460
#	61252
#	76925
#	94799
#	114230
#	128600
#	148087
#	165804
#	184887
#	201201
#	212429
#	238645
#	256031
#	268719
#	284608
#	296947
#	311227
#
# Disc length: 4357 seconds
#
# Revision: 1
# Processed by: cddbd v1.5PL3 Copyright (c) Steve Scherf et al.
# Submitted via: CDex 1.50Beta5
#
DISCID=14110314
DTITLE=Naomi Chiaki - Collection-6
DYEAR=1900
DGENRE=Pop -> General Pop
TTITLE0=Chiaki No Yume Ha Yoru Hiraku
TTITLE1=Yogiri Yo Konya Mo Arigatou
TTITLE2=Koukotsu No Blues
TTITLE3=Shinjyuku Blues
TTITLE4=Akashia No Ame Ga Yamu-Toki
TTITLE5=Tabigasa-Douchyu
TTITLE6=Ame noYoru Anata Ha Kaeru
TTITLE7=Ano-Ko Ga Naiteru Hatoba
TTITLE8=Douse Hirotta Koi Damono
TTITLE9=Ame No Oranda-Zaka
TTITLE10=Aita-Katta-Ze
TTITLE11=Gondola No Uta
TTITLE12=Hokkikou
TTITLE13=Sekishyoku Elegy
TTITLE14=Anata No Subete Wo
TTITLE15=Shiri-Taku Nai No
TTITLE16=Onna No Shuffle
TTITLE17=Kare No Okini-Iri
TTITLE18=Sei-Un Ichidai
TTITLE19=Wakare No Ippon Sugi
EXTD=
EXTT0=
EXTT1=
EXTT2=
EXTT3=
EXTT4=
EXTT5=
EXTT6=
EXTT7=
EXTT8=
EXTT9=
EXTT10=
EXTT11=
EXTT12=
EXTT13=
EXTT14=
EXTT15=
EXTT16=
EXTT17=
EXTT18=
EXTT19=
PLAYORDER=
